<svg width="392" height="150" viewBox="0 0 392 150" fill="none" xmlns="http://www.w3.org/2000/svg">
<path d="M0.512253 31.4165C0.512253 27.4165 2.51225 25.4165 6.51225 25.4165H53.9123C57.9123 25.4165 59.9123 27.4165 59.9123 31.4165V33.0665C59.9123 37.0665 57.9123 39.0665 53.9123 39.0665H43.1123C39.1123 39.0665 37.1123 41.0665 37.1123 45.0665V127.117C37.1123 131.117 35.1123 133.117 31.1123 133.117H29.4623C25.4623 133.117 23.4623 131.117 23.4623 127.117V45.0665C23.4623 41.0665 21.4623 39.0665 17.4623 39.0665H6.51225C2.51225 39.0665 0.512253 37.0665 0.512253 33.0665V31.4165Z" fill="white"/>
<path d="M102.659 82.5665C102.659 86.5665 100.659 88.5665 96.6587 88.5665H68.9087C64.9087 88.5665 62.9087 86.5665 62.9087 82.5665V80.3165C62.9087 76.3165 64.9087 74.3165 68.9087 74.3165H96.6587C100.659 74.3165 102.659 76.3165 102.659 80.3165V82.5665ZM160.438 67.1165C162.438 69.1165 163.438 71.5665 163.438 74.4665V117.667C163.438 120.567 162.438 123.017 160.438 125.017L155.488 129.967C153.488 131.967 151.038 132.967 148.138 132.967H120.688C116.688 132.967 114.688 130.967 114.688 126.967V31.2665C114.688 27.2665 116.688 25.2665 120.688 25.2665H122.338C126.338 25.2665 128.338 27.2665 128.338 31.2665V53.1665C128.338 57.1665 130.338 59.1665 134.338 59.1665H148.138C151.038 59.1665 153.488 60.1665 155.488 62.1665L160.438 67.1165ZM134.338 72.8165C130.338 72.8165 128.338 74.8165 128.338 78.8165V113.317C128.338 117.317 130.338 119.317 134.338 119.317H143.788C147.788 119.317 149.788 117.317 149.788 113.317V78.8165C149.788 74.8165 147.788 72.8165 143.788 72.8165H134.338ZM224.459 66.9665C226.459 69.0665 227.459 71.5665 227.459 74.4665V117.967C227.459 120.867 226.459 123.367 224.459 125.467L219.659 130.267C217.659 132.267 215.209 133.267 212.309 133.267H193.709C190.809 133.267 188.359 132.267 186.359 130.267L181.409 125.317C179.409 123.317 178.409 120.867 178.409 117.967V74.4665C178.409 71.5665 179.409 69.1165 181.409 67.1165L186.359 62.1665C188.359 60.1665 190.809 59.1665 193.709 59.1665H212.309C215.209 59.1665 217.659 60.1665 219.659 62.1665L224.459 66.9665ZM213.809 78.8165C213.809 74.8165 211.809 72.8165 207.809 72.8165H198.059C194.059 72.8165 192.059 74.8165 192.059 78.8165V113.617C192.059 117.617 194.059 119.617 198.059 119.617H207.809C211.809 119.617 213.809 117.617 213.809 113.617V78.8165ZM257.722 133.117C254.822 133.117 252.372 132.117 250.372 130.117L245.422 125.167C243.422 123.167 242.422 120.717 242.422 117.817V100.417C242.422 98.9165 242.672 97.6165 243.172 96.5165C243.672 95.3165 244.472 94.1665 245.572 93.0665L250.372 88.2665C252.372 86.2665 254.822 85.2665 257.722 85.2665H271.972C275.972 85.2665 277.972 83.2665 277.972 79.2665V78.8165C277.972 74.8165 275.972 72.8165 271.972 72.8165H248.872C244.872 72.8165 242.872 70.8165 242.872 66.8165V65.1665C242.872 61.1665 244.872 59.1665 248.872 59.1665H276.322C279.222 59.1665 281.672 60.1665 283.672 62.1665L288.622 67.1165C290.622 69.1165 291.622 71.5665 291.622 74.4665V127.117C291.622 131.117 289.622 133.117 285.622 133.117H257.722ZM277.972 103.567C277.972 99.5665 275.972 97.5665 271.972 97.5665H262.072C258.072 97.5665 256.072 99.5665 256.072 103.567V114.817C256.072 118.817 258.072 120.817 262.072 120.817H271.972C275.972 120.817 277.972 118.817 277.972 114.817V103.567ZM323.344 127.117C323.344 131.117 321.344 133.117 317.344 133.117H315.694C311.694 133.117 309.694 131.117 309.694 127.117V74.4665C309.694 71.5665 310.694 69.1165 312.694 67.1165L317.644 62.1665C319.644 60.1665 322.094 59.1665 324.994 59.1665H327.694C331.694 59.1665 333.694 61.1665 333.694 65.1665V66.8165C333.694 70.8165 331.994 72.8165 328.594 72.8165C326.894 72.8165 325.594 73.3665 324.694 74.4665C323.794 75.4665 323.344 76.9165 323.344 78.8165V127.117ZM350.564 62.1665C352.564 60.1665 355.064 59.1665 358.064 59.1665H371.864C375.864 59.1665 377.864 57.1665 377.864 53.1665V31.5665C377.864 27.5665 379.864 25.5665 383.864 25.5665H385.514C389.514 25.5665 391.514 27.5665 391.514 31.5665V127.267C391.514 131.267 389.514 133.267 385.514 133.267H358.064C355.164 133.267 352.714 132.267 350.714 130.267L345.764 125.317C343.764 123.317 342.764 120.867 342.764 117.967V74.3165C342.764 71.4165 343.764 68.9665 345.764 66.9665L350.564 62.1665ZM356.414 113.617C356.414 117.617 358.414 119.617 362.414 119.617H371.864C375.864 119.617 377.864 117.617 377.864 113.617V78.8165C377.864 74.8165 375.864 72.8165 371.864 72.8165H362.414C358.414 72.8165 356.414 74.8165 356.414 78.8165V113.617Z" fill="#A2B7CA"/>
</svg>
